<svg version="1.1" id="Layer_1" xmlns="http://www.w3.org/2000/svg" xmlns:xlink="http://www.w3.org/1999/xlink" x="0px" y="0px" viewBox="0 0 500 500" style="width: 135px;" xml:space="preserve" data-imageid="school-64" imageName="School" class="illustrations_image">
<style type="text/css">
	.st0_school-64{fill:#FFFFFF;}
	.st1_school-64{fill:#093F68;}
	.st2_school-64{fill:#68E1FD;}
	.st3_school-64{fill:#70CC40;}
	.st4_school-64{fill:#F56132;}
</style>
<g id="school_school-64">
	<rect x="66.8" y="253.9" class="st0_school-64" width="366.3" height="158.4"/>
	<path class="st1_school-64" d="M433.1,414H66.8c-1,0-1.7-0.8-1.7-1.7c0,0,0,0,0,0V253.9c0-0.9,0.8-1.7,1.7-1.7c0,0,0,0,0,0h366.3&#10;&#9;&#9;c0.9,0,1.7,0.8,1.7,1.7c0,0,0,0,0,0v158.4C434.9,413.2,434.1,414,433.1,414C433.2,414,433.2,414,433.1,414z M68.6,410.5h362.8&#10;&#9;&#9;V255.6H68.6V410.5z"/>
	<polygon class="st2_school-64 targetColor" points="109.5,170.8 390.5,170.8 440.1,253.9 59.8,253.9 &#9;" style="fill: rgb(255, 255, 255);"/>
	<path class="st1_school-64" d="M440.1,255.6H59.8c-1,0-1.7-0.8-1.7-1.8c0-0.3,0.1-0.6,0.2-0.8l49.6-83.1c0.3-0.5,0.9-0.8,1.5-0.8h281.1&#10;&#9;&#9;c0.6,0,1.2,0.3,1.5,0.8l49.6,83.1c0.5,0.8,0.2,1.9-0.6,2.4C440.8,255.5,440.5,255.6,440.1,255.6L440.1,255.6z M62.9,252.1h374.2&#10;&#9;&#9;l-47.5-79.6H110.4L62.9,252.1z"/>
	<polygon class="st0_school-64" points="171.1,220.6 250,142.4 328.9,220.6 328.9,412.2 171.1,412.2 &#9;"/>
	<path class="st1_school-64" d="M328.9,414H171.1c-1,0-1.7-0.8-1.7-1.7V220.6c0-0.5,0.2-0.9,0.5-1.2l78.9-78.2c0.7-0.7,1.8-0.7,2.4,0&#10;&#9;&#9;l78.9,78.2c0.3,0.3,0.5,0.8,0.5,1.2v191.6C330.6,413.2,329.9,414,328.9,414C328.9,414,328.9,414,328.9,414z M172.9,410.5h154.3&#10;&#9;&#9;V221.3L250,144.9l-77.1,76.5L172.9,410.5z"/>
	<path class="st2_school-64 targetColor" d="M336,229.3c-2.2,0-4.2-0.8-5.8-2.3L250,154.1L169.8,227c-3.5,3.3-9,3.1-12.3-0.4s-3.1-9,0.4-12.3&#10;&#9;&#9;c0.1-0.1,0.1-0.1,0.2-0.2l86-78.2c3.3-3,8.4-3,11.7,0l86,78.2c3.5,3.2,3.8,8.7,0.6,12.3C340.7,228.2,338.4,229.3,336,229.3&#10;&#9;&#9;L336,229.3z" style="fill: rgb(255, 255, 255);"/>
	<path class="st1_school-64" d="M164,231h-0.5c-5.7-0.3-10.2-5.2-9.9-10.9c0.1-2.7,1.4-5.3,3.4-7.2l86-78.2c4-3.6,10-3.6,14,0l86,78.2&#10;&#9;&#9;c4.4,3.7,4.9,10.3,1.2,14.7s-10.3,4.9-14.7,1.2c-0.2-0.2-0.4-0.3-0.5-0.5l-79-71.8l-79,71.8C169.1,230.1,166.6,231,164,231z&#10;&#9;&#9; M250,135.4c-1.7,0-3.4,0.6-4.7,1.8l-86,78.2c-2.8,2.6-3,7-0.5,9.8c1.2,1.4,3,2.2,4.8,2.3c1.8,0.1,3.6-0.6,5-1.8l80.2-72.9&#10;&#9;&#9;c0.7-0.6,1.7-0.6,2.3,0l80.2,72.9c2.8,2.6,7.2,2.4,9.8-0.5c2.6-2.8,2.4-7.2-0.5-9.8l0,0l-86-78.2&#10;&#9;&#9;C253.4,136.1,251.7,135.4,250,135.4L250,135.4z"/>
	<rect x="203.4" y="323.4" class="st1_school-64" width="93.2" height="74.2"/>
	<path class="st1_school-64" d="M296.6,399.4h-93.2c-1,0-1.7-0.8-1.7-1.7c0,0,0,0,0,0v-74.2c0-1,0.8-1.7,1.7-1.7h93.2c1,0,1.7,0.8,1.7,1.7&#10;&#9;&#9;v74.2C298.3,398.6,297.5,399.4,296.6,399.4C296.6,399.4,296.6,399.4,296.6,399.4z M205.2,395.9h89.7v-70.8h-89.7L205.2,395.9z"/>
	<rect x="79.6" y="279" class="st2_school-64 targetColor" width="30.3" height="42.4" style="fill: rgb(255, 255, 255);"/>
	<path class="st1_school-64" d="M109.9,323.1H79.6c-0.9,0-1.7-0.8-1.7-1.7c0,0,0,0,0,0V279c0-1,0.8-1.7,1.7-1.7c0,0,0,0,0,0h30.3&#10;&#9;&#9;c1,0,1.7,0.8,1.7,1.7v42.4C111.7,322.4,110.9,323.1,109.9,323.1C109.9,323.2,109.9,323.2,109.9,323.1z M81.4,319.7h26.8v-38.9H81.4&#10;&#9;&#9;V319.7z"/>
	<path class="st1_school-64" d="M108.1,311.6H79.6c-1-0.1-1.7-0.9-1.6-1.9c0.1-0.9,0.7-1.5,1.6-1.6h28.5c1-0.1,1.8,0.6,1.9,1.6&#10;&#9;&#9;c0.1,1-0.6,1.8-1.6,1.9C108.3,311.7,108.2,311.7,108.1,311.6z"/>
	<rect x="122.3" y="279" class="st2_school-64 targetColor" width="30.3" height="42.4" style="fill: rgb(255, 255, 255);"/>
	<path class="st1_school-64" d="M152.6,323.1h-30.3c-0.9,0-1.7-0.8-1.7-1.7c0,0,0,0,0,0V279c0-1,0.8-1.7,1.7-1.7c0,0,0,0,0,0h30.3&#10;&#9;&#9;c1,0,1.7,0.8,1.7,1.7v42.4C154.4,322.4,153.6,323.1,152.6,323.1C152.6,323.2,152.6,323.2,152.6,323.1z M124,319.7h26.8v-38.9h-26.8&#10;&#9;&#9;L124,319.7z"/>
	<path class="st1_school-64" d="M150.8,311.6h-28.5c-1-0.1-1.7-0.9-1.6-1.9c0.1-0.9,0.7-1.5,1.6-1.6h28.5c1-0.1,1.8,0.6,1.9,1.6&#10;&#9;&#9;c0.1,1-0.6,1.8-1.6,1.9C151,311.7,150.9,311.7,150.8,311.6z"/>
	<rect x="79.6" y="337.1" class="st2_school-64 targetColor" width="30.3" height="42.4" style="fill: rgb(255, 255, 255);"/>
	<path class="st1_school-64" d="M109.9,381.2H79.6c-1,0-1.7-0.8-1.7-1.7l0,0v-42.4c0-0.9,0.8-1.7,1.7-1.7c0,0,0,0,0,0h30.3&#10;&#9;&#9;c1,0,1.7,0.8,1.7,1.7c0,0,0,0,0,0v42.4C111.7,380.5,110.9,381.2,109.9,381.2z M81.4,377.8h26.8v-38.9H81.4V377.8z"/>
	<path class="st1_school-64" d="M108.1,369.8H79.6c-1-0.1-1.7-0.9-1.6-1.9c0.1-0.9,0.7-1.5,1.6-1.6h28.5c1-0.1,1.8,0.6,1.9,1.6&#10;&#9;&#9;c0.1,1-0.6,1.8-1.6,1.9C108.3,369.8,108.2,369.8,108.1,369.8z"/>
	<rect x="122.3" y="337.1" class="st2_school-64 targetColor" width="30.3" height="42.4" style="fill: rgb(255, 255, 255);"/>
	<path class="st1_school-64" d="M152.6,381.2h-30.3c-1,0-1.7-0.8-1.7-1.7l0,0v-42.4c0-0.9,0.8-1.7,1.7-1.7c0,0,0,0,0,0h30.3&#10;&#9;&#9;c1,0,1.7,0.8,1.7,1.7c0,0,0,0,0,0v42.4C154.4,380.5,153.6,381.3,152.6,381.2z M124,377.8h26.8v-38.9h-26.8L124,377.8z"/>
	<path class="st1_school-64" d="M150.8,369.8h-28.5c-1-0.1-1.7-0.9-1.6-1.9c0.1-0.9,0.7-1.5,1.6-1.6h28.5c1-0.1,1.8,0.6,1.9,1.6&#10;&#9;&#9;c0.1,1-0.6,1.8-1.6,1.9C151,369.8,150.9,369.8,150.8,369.8z"/>
	<rect x="347.4" y="279" class="st2_school-64 targetColor" width="30.3" height="42.4" style="fill: rgb(255, 255, 255);"/>
	<path class="st1_school-64" d="M377.7,323.1h-30.3c-1,0-1.7-0.8-1.7-1.7c0,0,0,0,0,0V279c0-1,0.8-1.7,1.7-1.7h30.3c1,0,1.7,0.8,1.7,1.7&#10;&#9;&#9;c0,0,0,0,0,0v42.4C379.4,322.4,378.7,323.1,377.7,323.1C377.7,323.2,377.7,323.2,377.7,323.1z M349.1,319.7H376v-38.9h-26.9V319.7z&#10;&#9;&#9;"/>
	<path class="st1_school-64" d="M375.9,311.6h-28.5c-1,0.1-1.8-0.6-1.9-1.6c-0.1-1,0.6-1.8,1.6-1.9c0.1,0,0.2,0,0.3,0h28.5&#10;&#9;&#9;c1-0.1,1.8,0.6,1.9,1.6c0.1,1-0.6,1.8-1.6,1.9C376,311.7,375.9,311.7,375.9,311.6z"/>
	<rect x="390.1" y="279" class="st2_school-64 targetColor" width="30.3" height="42.4" style="fill: rgb(255, 255, 255);"/>
	<path class="st1_school-64" d="M420.4,323.1h-30.3c-1,0-1.7-0.8-1.7-1.7c0,0,0,0,0,0V279c0-1,0.8-1.7,1.7-1.7h30.3c1,0,1.7,0.8,1.7,1.7&#10;&#9;&#9;c0,0,0,0,0,0v42.4C422.1,322.4,421.4,323.1,420.4,323.1C420.4,323.2,420.4,323.2,420.4,323.1z M391.8,319.7h26.8v-38.9h-26.8V319.7&#10;&#9;&#9;z"/>
	<path class="st1_school-64" d="M418.5,311.6h-28.5c-1,0.1-1.8-0.6-1.9-1.6c-0.1-1,0.6-1.8,1.6-1.9c0.1,0,0.2,0,0.3,0h28.5&#10;&#9;&#9;c1-0.1,1.8,0.6,1.9,1.6c0.1,1-0.6,1.8-1.6,1.9C418.7,311.7,418.6,311.7,418.5,311.6z"/>
	<rect x="347.4" y="337.1" class="st2_school-64 targetColor" width="30.3" height="42.4" style="fill: rgb(255, 255, 255);"/>
	<path class="st1_school-64" d="M377.7,381.2h-30.3c-1,0-1.7-0.8-1.7-1.7v-42.4c0-1,0.8-1.7,1.7-1.7c0,0,0,0,0,0h30.3c0.9,0,1.7,0.8,1.7,1.7&#10;&#9;&#9;c0,0,0,0,0,0v42.4C379.4,380.5,378.6,381.2,377.7,381.2C377.7,381.2,377.7,381.2,377.7,381.2z M349.1,377.8H376v-38.9h-26.9V377.8z&#10;&#9;&#9;"/>
	<path class="st1_school-64" d="M375.9,369.8h-28.5c-1,0.1-1.8-0.6-1.9-1.6c-0.1-1,0.6-1.8,1.6-1.9c0.1,0,0.2,0,0.3,0h28.5&#10;&#9;&#9;c1-0.1,1.8,0.6,1.9,1.6c0.1,1-0.6,1.8-1.6,1.9C376,369.8,375.9,369.8,375.9,369.8z"/>
	<rect x="390.1" y="337.1" class="st2_school-64 targetColor" width="30.3" height="42.4" style="fill: rgb(255, 255, 255);"/>
	<path class="st1_school-64" d="M420.4,381.2h-30.3c-1,0-1.7-0.8-1.7-1.7v-42.4c0-1,0.8-1.7,1.7-1.7c0,0,0,0,0,0h30.3c0.9,0,1.7,0.8,1.7,1.7&#10;&#9;&#9;c0,0,0,0,0,0v42.4C422.1,380.5,421.3,381.2,420.4,381.2C420.4,381.2,420.4,381.2,420.4,381.2z M391.8,377.8h26.8v-38.9h-26.8V377.8&#10;&#9;&#9;z"/>
	<path class="st1_school-64" d="M418.5,369.8h-28.5c-1,0.1-1.8-0.6-1.9-1.6c-0.1-1,0.6-1.8,1.6-1.9c0.1,0,0.2,0,0.3,0h28.5&#10;&#9;&#9;c1-0.1,1.8,0.6,1.9,1.6c0.1,1-0.6,1.8-1.6,1.9C418.7,369.8,418.6,369.8,418.5,369.8z"/>
	<path class="st1_school-64" d="M455.5,414h-411c-1,0-1.7-0.8-1.7-1.7c0-1,0.8-1.7,1.7-1.7h411c1,0,1.7,0.8,1.7,1.7&#10;&#9;&#9;C457.2,413.2,456.5,414,455.5,414z"/>
	<rect x="198.7" y="308.2" class="st0_school-64" width="102.6" height="15.2"/>
	<path class="st1_school-64" d="M301.3,325.1H198.7c-1,0-1.7-0.8-1.7-1.7l0,0v-15.2c0-1,0.8-1.7,1.7-1.7h102.6c1,0,1.7,0.8,1.7,1.7v15.2&#10;&#9;&#9;C303,324.3,302.3,325.1,301.3,325.1z M200.4,321.6h99.1V310h-99.1L200.4,321.6z"/>
	<rect x="191" y="397.6" class="st0_school-64" width="118" height="14.6"/>
	<path class="st1_school-64" d="M309,414H191c-1,0-1.7-0.8-1.7-1.7v-14.6c0-1,0.8-1.7,1.7-1.7h118c1,0,1.7,0.8,1.7,1.7v14.6&#10;&#9;&#9;C310.7,413.2,310,414,309,414z M192.7,410.5h114.6v-11.2H192.7L192.7,410.5z"/>
</g>
<g id="flag_school-64">
	<path class="st1_school-64" d="M250,135.5c-1,0-1.7-0.8-1.7-1.7c0,0,0,0,0,0V87.2c0-1,0.8-1.7,1.7-1.7c1,0,1.7,0.8,1.7,1.7v46.5&#10;&#9;&#9;C251.7,134.7,251,135.5,250,135.5z"/>
	<rect x="250" y="94.4" class="st3_school-64" width="30.3" height="18.2"/>
	<path class="st1_school-64" d="M280.3,114.4H250c-1,0-1.7-0.8-1.7-1.7l0,0V94.4c0-1,0.8-1.7,1.7-1.7c0,0,0,0,0,0h30.3c1,0,1.7,0.8,1.7,1.7&#10;&#9;&#9;c0,0,0,0,0,0v18.2C282,113.6,281.3,114.4,280.3,114.4z M251.7,110.9h26.8V96.1h-26.8L251.7,110.9z"/>
</g>
<g id="clock_school-64">
	
		<ellipse transform="matrix(0.1602 -0.9871 0.9871 0.1602 -30.9739 451.7546)" class="st4_school-64" cx="250" cy="244.1" rx="31.8" ry="31.8"/>
	<path class="st1_school-64" d="M250,277.6c-18.5,0-33.5-15-33.5-33.5c0-18.5,15-33.5,33.5-33.5c18.5,0,33.5,15,33.5,33.5&#10;&#9;&#9;C283.5,262.6,268.5,277.6,250,277.6z M250,214c-16.6,0-30,13.4-30,30s13.4,30,30,30s30-13.4,30-30C280,227.4,266.6,214,250,214z"/>
	<path class="st0_school-64" d="M267.8,257.1c-0.3,0-0.5-0.1-0.8-0.2l-19.2-9.8c-0.6-0.3-0.9-0.9-0.9-1.6v-16.3c0.1-1,0.9-1.7,1.9-1.6&#10;&#9;&#9;c0.9,0.1,1.5,0.7,1.6,1.6v15.3l18.2,9.3c0.9,0.4,1.2,1.5,0.8,2.3C269.1,256.8,268.4,257.1,267.8,257.1z"/>
</g>
</svg>